{
  "accessors": [
    {
      "bufferView": 2,
      "componentType": 5126,
      "count": 3579,
      "max": [
        1.0001626014709473,
        0.8558824062347412,
        1.8994886875152588
      ],
      "min": [
        -0.999837338924408,
        -0.25831449031829834,
        -0.01695871353149414
      ],
      "type": "VEC3"
    },
    {
      "bufferView": 2,
      "byteOffset": 42948,
      "componentType": 5126,
      "count": 3579,
      "max": [
        1.0,
        0.9988875985145569,
        0.9992741346359253
      ],
      "min": [
        -1.0,
        -0.9989883899688721,
        -1.0
      ],
      "type": "VEC3"
    },
    {
      "bufferView": 1,
      "componentType": 5126,
      "count": 3579,
      "max": [
        1.0,
        1.0
      ],
      "min": [
        0.0,
        0.0
      ],
      "type": "VEC2"
    },
    {
      "bufferView": 0,
      "componentType": 5125,
      "count": 17136,
      "type": "SCALAR"
    },
    {
      "bufferView": 2,
      "byteOffset": 85896,
      "componentType": 5126,
      "count": 36,
      "max": [
        0.9851626753807068,
        0.833320140838623,
        1.8880565166473389
      ],
      "min": [
        -0.9848373532295227,
        -0.2437010407447815,
        1.2150590419769287
      ],
      "type": "VEC3"
    },
    {
      "bufferView": 2,
      "byteOffset": 86328,
      "componentType": 5126,
      "count": 36,
      "max": [
        1.583267916771547e-08,
        -0.5299192667007446,
        0.8480480909347534
      ],
      "min": [
        1.583267916771547e-08,
        -0.5299192667007446,
        0.8480480909347534
      ],
      "type": "VEC3"
    },
    {
      "bufferView": 1,
      "byteOffset": 28632,
      "componentType": 5126,
      "count": 36,
      "max": [
        0.9918374419212341,
        0.9911841154098511
      ],
      "min": [
        0.001799297402612865,
        0.003894264344125986
      ],
      "type": "VEC2"
    },
    {
      "bufferView": 0,
      "byteOffset": 68544,
      "componentType": 5125,
      "count": 102,
      "type": "SCALAR"
    }
  ],
  "asset": {
    "extras": {
      "author": "rokey.kachhua (https://sketchfab.com/rokey.kachhua)",
      "license": "CC-BY-4.0 (http://creativecommons.org/licenses/by/4.0/)",
      "source": "https://sketchfab.com/3d-models/electronic-kiosk-d9e4a076aeea4634b162946e27ab367b",
      "title": "Electronic Kiosk"
    },
    "generator": "Sketchfab-11.25.0",
    "version": "2.0"
  },
  "bufferViews": [
    {
      "buffer": 0,
      "byteLength": 68952,
      "name": "floatBufferViews",
      "target": 34963
    },
    {
      "buffer": 0,
      "byteLength": 28920,
      "byteOffset": 68952,
      "byteStride": 8,
      "name": "floatBufferViews",
      "target": 34962
    },
    {
      "buffer": 0,
      "byteLength": 86760,
      "byteOffset": 97872,
      "byteStride": 12,
      "name": "floatBufferViews",
      "target": 34962
    }
  ],
  "buffers": [
    {
      "byteLength": 184632,
      "uri": "scene.bin"
    }
  ],
  "extensionsRequired": [
    "KHR_materials_pbrSpecularGlossiness"
  ],
  "extensionsUsed": [
    "KHR_materials_pbrSpecularGlossiness"
  ],
  "images": [
    {
      "uri": "textures/panel_diffuse.png"
    }
  ],
  "materials": [
    {
      "doubleSided": true,
      "extensions": {
        "KHR_materials_pbrSpecularGlossiness": {
          "diffuseFactor": [
            0.3666474820719907,
            0.3666474820719907,
            0.3666474820719907,
            1.0
          ],
          "glossinessFactor": 0.8104866299008269,
          "specularFactor": [
            0.9320863964292752,
            0.9320863964292752,
            0.9320863964292752
          ]
        }
      },
      "name": "color"
    },
    {
      "doubleSided": true,
      "extensions": {
        "KHR_materials_pbrSpecularGlossiness": {
          "diffuseFactor": [
            1.0,
            1.0,
            1.0,
            1.0
          ],
          "diffuseTexture": {
            "index": 0
          },
          "glossinessFactor": 1.0,
          "specularFactor": [
            0.15,
            0.15,
            0.15
          ]
        }
      },
      "name": "panel"
    }
  ],
  "meshes": [
    {
      "name": "Cube_color_0",
      "primitives": [
        {
          "attributes": {
            "NORMAL": 1,
            "POSITION": 0,
            "TEXCOORD_0": 2
          },
          "indices": 3,
          "material": 0,
          "mode": 4
        }
      ]
    },
    {
      "name": "Cube_panel_0",
      "primitives": [
        {
          "attributes": {
            "NORMAL": 5,
            "POSITION": 4,
            "TEXCOORD_0": 6
          },
          "indices": 7,
          "material": 1,
          "mode": 4
        }
      ]
    }
  ],
  "nodes": [
    {
      "children": [
        1
      ],
      "matrix": [
        0.006666666828095913,
        0.0,
        0.0,
        0.0,
        0.0,
        1.4802974020113686e-18,
        -0.006666666828095913,
        0.0,
        0.0,
        0.006666666828095913,
        1.4802974020113686e-18,
        0.0,
        0.0,
        0.0,
        0.0,
        1.0
      ],
      "name": "Sketchfab_model"
    },
    {
      "children": [
        2
      ],
      "matrix": [
        1.0,
        0.0,
        0.0,
        0.0,
        0.0,
        0.0,
        1.0,
        0.0,
        0.0,
        -1.0,
        0.0,
        0.0,
        0.0,
        0.0,
        0.0,
        1.0
      ],
      "name": "6a31a598b8d54bd3a66cf5bb1deeb82a.fbx"
    },
    {
      "children": [
        3
      ],
      "name": "RootNode"
    },
    {
      "children": [
        4,
        5
      ],
      "matrix": [
        100.0,
        0.0,
        0.0,
        0.0,
        -0.0,
        -1.629206793918314e-05,
        -99.99999999999868,
        0.0,
        0.0,
        99.99999999999868,
        -1.629206793918314e-05,
        0.0,
        -0.016263918951153755,
        -0.3041267395019531,
        29.99834442138672,
        1.0
      ],
      "name": "Cube"
    },
    {
      "mesh": 0,
      "name": "Cube_color_0"
    },
    {
      "mesh": 1,
      "name": "Cube_panel_0"
    }
  ],
  "samplers": [
    {
      "magFilter": 9729,
      "minFilter": 9987,
      "wrapS": 10497,
      "wrapT": 10497
    }
  ],
  "scene": 0,
  "scenes": [
    {
      "name": "Sketchfab_Scene",
      "nodes": [
        0
      ]
    }
  ],
  "textures": [
    {
      "sampler": 0,
      "source": 0
    }
  ]
}
